<svg width="21" height="21" viewBox="0 0 21 21" fill="none" xmlns="http://www.w3.org/2000/svg">
<path d="M18.8505 10.8406C18.8505 10.1219 18.7912 9.59687 18.6624 9.05249H10.2793V12.2994H15.1999C15.1005 13.1062 14.5649 14.3219 13.3749 15.1381L13.358 15.2469L16.008 17.2594L16.1918 17.2775C17.8787 15.7506 18.8505 13.505 18.8505 10.8412V10.8406Z" fill="#4285F4"/>
<path d="M10.2784 19.3969C12.689 19.3969 14.7127 18.6194 16.1909 17.2775L13.374 15.1382C12.6196 15.6538 11.6077 16.0132 10.2784 16.0132C9.15831 16.0132 8.06632 15.6628 7.15552 15.0109C6.24472 14.359 5.56078 13.4384 5.19961 12.3782L5.09523 12.3869L2.33898 14.4769L2.30273 14.575C3.77086 17.4332 6.78711 19.3969 10.2784 19.3969Z" fill="#34A853"/>
<path d="M5.19996 12.3775C5.00499 11.8211 4.90444 11.2359 4.90246 10.6463C4.90246 10.0438 5.01184 9.46064 5.18996 8.91627L5.18496 8.80064L2.39434 6.67627L2.30309 6.71877C1.67859 7.93409 1.35211 9.28051 1.35059 10.6469C1.35059 12.0569 1.69809 13.3888 2.30309 14.5744L5.19996 12.3781V12.3775Z" fill="#FBBC05"/>
<path d="M10.278 5.2801C11.9549 5.2801 13.0855 5.9901 13.7305 6.58322L16.2505 4.17197C14.703 2.76197 12.6893 1.89697 10.278 1.89697C6.78676 1.89697 3.77051 3.86072 2.30176 6.71885L5.18926 8.91635C5.91301 6.80697 7.91738 5.2801 10.278 5.2801Z" fill="#EB4335"/>
</svg>
