<svg width="800" height="800" viewBox="0 0 800 800" fill="none" xmlns="http://www.w3.org/2000/svg">
<path d="M93.5697 364.992C95.1577 364.836 96.7492 364.771 98.3439 364.798C99.9393 364.826 101.528 364.944 103.11 365.155C125.069 368.133 139.867 382.907 152.629 399.709C148.245 409.47 145.084 419.954 141.556 430.049L129.31 464.088C127.471 469.502 125.815 475.632 123.059 480.64C120.967 475.591 119.61 470.058 117.949 464.843C115.199 456.213 112.274 447.65 109.574 439C102.045 414.641 94.2051 390.382 86.0557 366.223C88.5416 365.584 91.0252 365.292 93.5697 364.992Z" fill="#8FA4CD"/>
<path d="M709.168 364.987C715.688 364.265 721.597 365.407 727.773 367.411C724.877 379.484 719.769 391.416 715.864 403.22L691.202 479.401L687.701 470.409C678.377 446.049 669.692 421.392 660.69 396.916C662.27 394.68 663.916 392.494 665.628 390.357C676.567 376.636 691.6 366.988 709.168 364.987Z" fill="#8FA4CD"/>
<path d="M134.284 174.637C135.435 174.477 136.554 174.409 137.717 174.472C144.966 174.862 151.367 179.133 156.009 184.474C158.89 187.789 161.305 191.545 163.784 195.162C166.538 199.181 169.473 203.179 171.847 207.437C183.175 227.753 192.798 256.445 191.231 279.857C190.99 283.461 190.573 287.539 189.332 290.953C188.139 294.237 185.491 297.605 185.284 301.101C185.246 301.734 185.123 302.246 184.96 302.856C184.297 302.357 184.287 300.665 183.419 300.484C182.734 300.342 181.25 300.673 180.482 300.702C177.265 300.824 174.405 299.468 171.598 298.08C164.294 293.922 157.575 287.841 151.93 281.633C144.824 273.817 137.94 264.114 133.522 254.505C132.17 251.566 131.28 248.455 130.098 245.452C127.974 240.055 125.955 236.505 126.234 230.505C127.345 228.723 129.364 225.342 131.436 224.596C132.478 224.221 132.927 224.772 133.77 225.303C133.957 224.698 134.095 224.627 133.857 223.991C132.248 219.683 122.555 213.616 118.346 211.782C117.381 203.461 117.712 193.838 121.46 186.179C124.148 180.687 128.479 176.659 134.284 174.637Z" fill="#D1E1DC"/>
<path d="M125.071 485.503L141.301 439.81C145.835 427.389 150.613 415.003 154.49 402.357C165.053 419.427 172.956 437.368 179.785 456.217C181.572 461.148 186.514 479.396 188.78 482.081C170.163 512.454 167.324 533.009 163.3 567.807C162.303 576.431 162.045 585.788 160.196 594.235C158.57 591.023 157.592 587.28 156.449 583.86L149.218 561.577L133.879 515.118C130.742 505.447 127.152 495.439 125.071 485.503Z" fill="#8FA4CD"/>
<path d="M635.749 196.92C641.696 189.905 650.36 182.635 659.82 181.48C665.809 180.749 672.388 182.218 677.132 186.033C681.342 189.417 683.626 194.565 684.227 199.85C686.231 217.491 667.51 249.119 657.644 263.678C654.122 268.875 649.045 275.253 645.082 280.218C630.37 298.651 620.916 304.347 597.643 306.918C595.167 311.448 585.731 327.791 582.208 330.266L581.938 329.972C583.935 324.023 592.125 313.407 595.961 307.657C595.711 306.805 595.5 305.943 595.329 305.073C590.765 281.101 600.766 249.39 612.047 228.241C614.591 223.472 617.663 218.999 620.655 214.504C621.422 213.155 622.161 211.78 622.992 210.469L625.828 215.093C626.141 215.403 626.131 215.417 626.563 215.706C628.337 216.898 630.745 217.136 632.761 216.522C635.004 215.839 637.079 214.257 638.056 212.087C640.045 207.668 637.224 201.244 635.749 196.92Z" fill="#D1E1DC"/>
<path d="M657.864 400.209C662.935 410.309 666.369 421.624 670.154 432.281C674.092 443.182 678.135 454.043 682.282 464.866C684.556 470.969 686.526 477.729 689.49 483.523C676.353 525.77 662.775 567.874 648.757 609.837C647.354 604.291 646.662 593.301 645.923 587.122C641.577 550.778 642.108 522.992 623.233 489.845C626.001 484.101 627.624 473.209 629.607 466.521C636.296 443.959 644.855 420.002 657.864 400.209Z" fill="#8FA4CD"/>
<path d="M731.252 368.912C749.3 379.914 759.559 400.108 764.438 420.132C769.338 440.247 769.5 460.036 767.795 480.57C760.722 482.861 710.01 499.716 708.013 502.809C707.892 502.995 707.853 503.223 707.773 503.43C708.681 504.043 709.152 504.366 710.283 504.177C713.613 503.621 722.254 499.759 726.023 498.408C739.748 493.489 754.002 489.17 767.437 483.563C762.232 527.692 742.547 577.124 721.207 615.949C710.857 634.78 699.572 653.496 687.077 670.99C681.886 678.256 675.826 686.017 670.201 693.008C666.885 697.128 663.084 701.209 660.23 705.652C659.81 706.306 659.633 706.802 659.592 707.594L649.336 615.436C652.478 611.032 662.959 576.54 665.414 568.898L693.051 483.239L719.142 403.93C723.073 392.234 727.509 380.663 731.252 368.912Z" fill="#8FA4CD"/>
<path d="M82.9989 366.961C85.2231 375.17 88.3106 383.224 90.9637 391.315L103.194 429.598L141.505 548.245L153.893 586.592C155.504 591.49 156.811 597.53 159.264 602.027L151.295 677.945C150.704 683.355 149.943 698.688 148.633 702.998C148.317 702.103 131.156 680.792 128.689 677.595C125.264 673.061 121.941 668.454 118.718 663.774C81.9278 610.034 54.1134 548.445 45.0725 483.63C50.4692 485.244 55.6486 487.454 60.9248 489.416L89.8293 500.267C93.591 501.683 97.2465 503.443 101.068 504.692C102.366 505.117 103.907 505.656 105.2 504.994C105.447 504.074 105.449 503.997 105.135 503.098C100.761 500.492 94.9028 498.984 90.0871 497.166C75.2322 491.554 59.2216 486.392 44.7299 480.219C41.6553 456.523 42.9696 430.959 50.7547 408.242C56.6461 391.051 66.2357 375.136 82.9989 366.961Z" fill="#8FA4CD"/>
<path d="M232.363 437.58L232.403 437.077C232.831 431.16 232.479 425.083 232.496 419.144C232.575 407.211 232.577 395.278 232.499 383.345C232.473 375.944 231.576 367.337 233.47 360.171C234.886 354.816 238.278 349.909 242.438 346.303C245.182 343.926 248.249 341.968 251.049 339.666C256.153 335.468 260.167 329.284 263.049 323.402C276.016 296.941 275.225 264.643 278.304 235.877C279.375 226.676 280.712 217.514 282.315 208.391C292.788 145.096 315.75 92.8578 387.885 86.9672C397.825 86.1554 407.993 85.9398 417.942 86.714C445.549 88.8617 470.02 97.0586 488.525 118.748C520.727 156.488 526.036 216.062 531.474 263.566C533.365 280.08 534.471 297.718 539.717 313.568C541.848 320.009 544.878 326.35 549.204 331.615C557.644 341.882 570.737 348.435 573.738 362.467C575.416 370.308 574.495 381.244 574.499 389.491L574.541 436.938C595.48 452.823 610.185 466.613 623.233 489.845C642.107 522.992 641.577 550.778 645.923 587.122C646.662 593.301 647.353 604.291 648.756 609.837C648.922 611.706 649.068 613.577 649.335 615.436L659.591 707.594C660.646 717.666 662.118 727.803 662.67 737.911C656.126 738.364 649.453 738.144 642.89 738.133L608.806 738.088L483.91 737.876L145.165 737.865C145.369 726.616 147.424 714.268 148.633 702.998C149.943 698.688 150.704 683.355 151.295 677.945L159.263 602.027C159.723 599.453 159.932 596.835 160.196 594.235C162.045 585.788 162.303 576.431 163.3 567.807C167.324 533.009 170.163 512.454 188.78 482.081C202.856 461.222 212.696 452.604 232.363 437.58Z" fill="#0C1114"/>
<path d="M508.492 686.347L515.99 686.32L516.124 735.967C511.546 735.996 509.109 735.687 505.273 733.084C504.299 732.381 503.374 731.618 502.497 730.795C501.621 729.973 500.8 729.099 500.035 728.172C499.761 727.842 499.495 727.506 499.236 727.163C498.978 726.821 498.728 726.472 498.487 726.117C498.246 725.763 498.014 725.402 497.79 725.036C497.567 724.67 497.352 724.298 497.147 723.922C496.942 723.545 496.746 723.163 496.56 722.777C496.373 722.391 496.196 722 496.028 721.606C495.861 721.211 495.703 720.812 495.555 720.409C495.407 720.006 495.269 719.6 495.141 719.191C495.013 718.781 494.895 718.369 494.787 717.954C494.679 717.539 494.581 717.121 494.493 716.702C494.406 716.281 494.329 715.859 494.262 715.436C494.195 715.012 494.138 714.587 494.092 714.16C494.047 713.734 494.011 713.306 493.985 712.878C493.96 712.45 493.946 712.021 493.942 711.592C493.938 711.164 493.944 710.735 493.96 710.306C493.978 709.877 494.005 709.449 494.042 709.022C494.981 699.301 501.235 692.262 508.492 686.347Z" fill="#331A6A"/>
<path d="M290.053 637.816L300.846 637.877C301.816 638.552 302.746 639.277 303.673 640.01C309.507 644.631 313.654 650.503 314.479 658.054C315.32 665.745 313.289 672.442 308.522 678.462C305.983 681.219 303.429 682.895 300.181 684.723L290.106 684.822L290.053 637.816Z" fill="#331A6A"/>
<path d="M535.569 512.861C549.931 513.016 564.306 512.889 578.669 512.888C576.282 520.251 574.363 527.767 572.349 535.239L570.445 542.233C562.169 540.936 552.268 541.794 543.827 541.831C541.108 532.155 538.533 522.469 535.569 512.861Z" fill="#5576B9"/>
<path d="M227.1 531.668L272.775 531.645C270.614 538.808 268.689 546.042 266.57 553.22L264.522 559.716C254.844 559.325 245.127 559.564 235.445 559.745C232.349 550.526 229.922 540.986 227.1 531.668Z" fill="#5576B9"/>
<path d="M457.986 331.977C458.479 335.614 458.155 339.605 458.139 343.288C458.079 356.913 458.179 369.383 463.846 382.096C472.061 400.531 482.53 408.936 501.003 416.023C440.448 415.69 379.892 415.666 319.336 415.95L307.178 416.111C314.925 412.623 322.591 408.943 328.954 403.183C333.443 399.12 337.361 394.142 340.564 389.017C352.431 370.033 348.775 353.595 349.929 332.631C353.293 337.961 358.314 343.479 362.905 347.802C374.448 358.672 389.118 365.213 405.089 364.684C420.829 364.163 435.593 356.202 446.463 345.086C450.53 340.927 454.01 336.227 457.986 331.977Z" fill="#FEFEFE"/>
<path d="M289.791 589.867C361.003 590.465 432.236 589.317 503.447 590.135C497.637 595.66 493.356 601.29 492.282 609.481C491.316 616.849 493.439 623.984 497.946 629.82C499.76 632.108 501.854 633.884 504.191 635.61L375.514 635.559C347.055 635.404 318.596 635.405 290.137 635.561C290.095 620.344 290.312 605.075 289.791 589.867Z" fill="#FEFEFE"/>
<path d="M471.604 637.695C486.383 637.681 501.162 637.745 515.94 637.887L515.992 684.739L338.618 684.435L305.084 684.419C307.036 682.969 308.747 681.364 310.303 679.496C310.606 679.132 310.9 678.761 311.185 678.382C311.47 678.004 311.745 677.618 312.011 677.226C312.276 676.834 312.532 676.435 312.778 676.03C313.023 675.625 313.258 675.214 313.484 674.797C313.709 674.38 313.924 673.958 314.128 673.53C314.331 673.103 314.525 672.67 314.707 672.234C314.89 671.796 315.061 671.355 315.221 670.909C315.382 670.463 315.531 670.014 315.669 669.561C315.807 669.107 315.934 668.651 316.05 668.191C316.165 667.732 316.268 667.27 316.361 666.805C316.453 666.34 316.533 665.874 316.602 665.405C316.671 664.937 316.728 664.466 316.774 663.994C316.819 663.523 316.853 663.051 316.875 662.577C316.896 662.104 316.906 661.631 316.904 661.157C316.903 660.683 316.889 660.21 316.864 659.737C316.838 659.264 316.801 658.792 316.752 658.32C315.865 649.225 311.09 643.331 304.232 637.775C326.576 637.521 348.943 637.832 371.289 637.878L471.604 637.695Z" fill="#FEFEFE"/>
<path d="M290.05 686.674L505.007 686.694C498.615 692.615 493.569 698.803 492.257 707.69C491.07 715.733 494.023 723.451 498.756 729.84C500.824 732.114 503.094 734.033 505.53 735.894L290.013 735.669C289.889 719.337 289.902 703.005 290.05 686.674Z" fill="#D1E1DC"/>
<path d="M239.42 561.467C243.634 561.102 248.074 561.308 252.314 561.269C263.216 561.167 270.245 562.305 278.257 570.29C278.845 570.883 279.41 571.496 279.952 572.13C280.494 572.765 281.011 573.419 281.503 574.093C281.996 574.766 282.462 575.457 282.902 576.166C283.343 576.875 283.756 577.6 284.142 578.34C284.528 579.079 284.885 579.833 285.214 580.6C285.543 581.367 285.843 582.145 286.113 582.934C286.384 583.724 286.624 584.522 286.834 585.329C287.044 586.137 287.223 586.952 287.372 587.772C288.405 593.279 287.961 599.344 287.966 604.927L287.973 633.272L287.952 735.751C279.279 735.889 270.588 735.799 261.914 735.814L212.933 735.776L212.904 637.062L212.887 607.213C212.884 600.736 212.462 593.984 213.473 587.582C214.306 582.299 216.731 577.307 219.982 573.08C224.863 566.733 231.425 562.474 239.42 561.467Z" fill="#FEFEFE"/>
<path d="M544.09 544.202C548.233 543.902 552.411 543.952 556.562 543.943C567.63 543.92 575.93 544.332 584.138 552.613C588.765 557.28 592.257 563.451 593.464 569.944C594.691 576.537 594.2 583.642 594.191 590.337L594.163 619.188L594.15 735.995L567.871 735.998L518.182 735.832C517.726 726.433 517.987 716.891 517.948 707.477L517.992 644.89L518.073 598.759C518.1 590.562 517.634 582.015 518.434 573.861C518.858 569.537 520.034 565.914 522.053 562.079C526.909 552.852 534.243 547.266 544.09 544.202Z" fill="#8FA4CD"/>
<path d="M397.012 165.439C399.064 167.298 410.371 192.577 412.732 197.246C424.178 196.844 435.764 197.251 447.221 197.287C458.18 197.321 469.203 196.969 480.151 197.382C481.503 198.384 481.771 200.403 482.028 201.991C488.362 241.183 477.81 300.813 454.129 333.29C443.349 348.074 428.377 359.513 410.011 362.444C403.902 363.204 397.657 363.062 391.65 361.65C373.795 357.45 359.227 344.023 349.795 328.753C331.075 298.448 323.547 262.392 324.13 227.076C324.294 217.116 324.863 206.916 327.13 197.188C334.683 196.912 342.292 197.137 349.851 197.151C360.36 197.068 370.869 197.068 381.378 197.152C386.806 186.689 391.449 175.827 397.012 165.439Z" fill="#FEFEFE"/>
<path d="M147.11 735.88L160.042 614.462L164.349 576.48C166.676 554.938 168.33 532.984 175.938 512.524C176.515 510.937 177.118 509.361 177.749 507.795C178.379 506.228 179.036 504.673 179.721 503.13C180.404 501.586 181.115 500.054 181.852 498.535C182.588 497.016 183.351 495.51 184.14 494.017C184.929 492.524 185.743 491.046 186.582 489.58C187.422 488.116 188.286 486.666 189.175 485.231C190.065 483.796 190.979 482.376 191.917 480.973C192.855 479.569 193.818 478.182 194.804 476.812C195.79 475.441 196.799 474.088 197.832 472.752C198.865 471.416 199.92 470.099 200.998 468.799C202.076 467.5 203.176 466.219 204.298 464.958C205.42 463.696 206.564 462.455 207.728 461.233C208.893 460.01 210.079 458.809 211.285 457.627C212.492 456.446 213.718 455.286 214.964 454.146C216.21 453.007 217.475 451.89 218.76 450.795C220.045 449.699 221.348 448.625 222.67 447.575C223.743 446.722 224.828 445.886 225.926 445.066C227.024 444.247 228.134 443.443 229.256 442.656C230.378 441.87 231.512 441.1 232.657 440.347C233.802 439.594 234.958 438.859 236.125 438.141C237.292 437.423 238.47 436.722 239.659 436.039C240.847 435.356 242.045 434.691 243.253 434.045C244.461 433.398 245.678 432.769 246.905 432.159C248.132 431.548 249.368 430.956 250.613 430.383C251.857 429.809 253.11 429.255 254.371 428.719C255.632 428.183 256.901 427.666 258.178 427.168C259.455 426.67 260.739 426.191 262.03 425.732C263.321 425.272 264.619 424.832 265.923 424.412C267.227 423.991 268.537 423.59 269.853 423.209C271.169 422.827 272.491 422.466 273.818 422.124C275.145 421.783 276.477 421.461 277.814 421.159C279.151 420.856 280.492 420.575 281.837 420.313C300.635 416.622 321.016 417.802 340.11 417.852L412.806 417.941L481.388 417.782C493.601 417.781 506.36 416.961 518.481 418.379C555.566 422.716 587.721 444.734 610.381 473.594C621.936 488.312 630.671 506.926 635.502 524.965C638.96 537.877 639.817 551.065 641.271 564.287L645.589 601.486L655.628 690C657.342 705.289 658.582 720.611 660.474 735.885L596.07 735.929L596.043 620.673L595.999 592.197C596.003 584.094 596.504 575.676 594.907 567.693C593.694 561.627 590.19 555.857 585.845 551.52C581.85 547.531 577.472 544.935 572.356 542.647C575.225 532.049 578.181 521.477 581.224 510.928L532.877 510.89C536.156 521.363 538.754 532.034 542.035 542.496C532.231 545.958 524.303 552.225 519.785 561.757C518.898 563.661 518.163 565.622 517.581 567.64C517 569.658 516.579 571.709 516.317 573.794C515.366 581.634 515.963 590.096 515.97 598.005C515.98 610.654 515.811 623.321 515.962 635.967L507.707 635.866C500.794 630.541 495.641 625.181 494.396 616.154C493.422 609.096 495.549 602.3 499.86 596.701C501.179 595.004 502.64 593.441 504.245 592.012C505.52 590.885 507.804 590.02 508.606 588.606L508.445 587.82C506.117 587.722 503.828 587.937 501.511 587.884L303.449 587.873C298.806 587.83 294.074 587.949 289.442 587.645C286.58 576.825 282.057 568.723 272.078 563.018C270.255 561.976 268.325 561.095 266.426 560.2C269.691 550.125 272.593 539.946 275.131 529.663C258.174 529.576 241.218 529.584 224.262 529.687C227.001 539.966 230.035 550.555 233.604 560.574C224.128 564.623 217.376 570.515 213.442 580.209C211.971 583.832 211.32 587.561 211.042 591.454C210.641 597.102 210.898 602.915 210.901 608.58L210.927 639.385L210.923 735.688L147.11 735.88Z" fill="#331A6A"/>
<path d="M303.165 523.696C303.278 523.172 303.241 522.32 303.769 522.071C305.249 521.375 345.712 521.855 351.827 521.857L466.064 521.88C471.081 521.886 497.951 521.29 500.849 522.21C501.243 522.798 501.335 523.003 501.499 523.728C492.839 524.617 482.629 523.845 473.82 523.831L416.525 523.806L340.852 523.838L317.492 523.856C312.75 523.863 307.889 524.08 303.165 523.696Z" fill="#0C1114"/>
<path d="M303.165 523.696C307.889 524.08 312.75 523.863 317.492 523.856L340.852 523.838L416.525 523.806L473.82 523.831C482.629 523.845 492.839 524.617 501.499 523.728C500.369 530.399 501.231 538.818 501.295 545.703C501.449 559.763 501.521 573.823 501.512 587.884L303.45 587.874L303.515 544.754C303.518 538.301 304.31 529.952 303.165 523.696Z" fill="#5576B9"/>
</svg>
