<svg width="32" height="32" viewBox="0 0 32 32" fill="none" xmlns="http://www.w3.org/2000/svg">
<g clip-path="url(#clip0_117_1930)">
<path d="M16 0L15.375 2.84725L16 5.97512C21.5278 5.97512 26.0249 10.4722 26.0249 16C26.0249 21.5278 21.5278 26.0249 16 26.0249L15.375 28.5909L16 32C24.8366 32 32 24.8366 32 16C32 7.16344 24.8366 0 16 0Z" fill="#95A3E4"/>
<path d="M22.0415 16C22.0415 12.6634 19.3366 9.9585 16 9.9585L15.375 16L16 22.0415C19.3366 22.0415 22.0415 19.3366 22.0415 16Z" fill="#331A6A"/>
<path d="M5.97512 26.0249V16C5.97512 10.4722 10.4722 5.97512 16 5.97512V0C7.16344 0 0 7.16344 0 16V32H16V26.0249H5.97512Z" fill="#95A3E4"/>
<path d="M9.95898 16C9.95898 19.3366 12.6639 22.0415 16.0005 22.0415V9.9585C12.6639 9.9585 9.95898 12.6634 9.95898 16Z" fill="#331A6A"/>
</g>
<defs>
<clipPath id="clip0_117_1930">
<rect width="32" height="32" fill="white"/>
</clipPath>
</defs>
</svg>
