<svg width="34" height="46" viewBox="0 0 34 46" fill="none" xmlns="http://www.w3.org/2000/svg">
<path d="M17.0002 29.2502C19.2103 29.2502 21.3299 28.3722 22.8927 26.8094C24.4555 25.2466 25.3335 23.127 25.3335 20.9168V8.41683C25.3335 6.20669 24.4555 4.08708 22.8927 2.52427C21.3299 0.96147 19.2103 0.0834961 17.0002 0.0834961C14.79 0.0834961 12.6704 0.96147 11.1076 2.52427C9.5448 4.08708 8.66683 6.20669 8.66683 8.41683V20.9168C8.66683 23.127 9.5448 25.2466 11.1076 26.8094C12.6704 28.3722 14.79 29.2502 17.0002 29.2502ZM12.8335 8.41683C12.8335 7.31176 13.2725 6.25195 14.0539 5.47055C14.8353 4.68915 15.8951 4.25016 17.0002 4.25016C18.1052 4.25016 19.165 4.68915 19.9464 5.47055C20.7278 6.25195 21.1668 7.31176 21.1668 8.41683V20.9168C21.1668 22.0219 20.7278 23.0817 19.9464 23.8631C19.165 24.6445 18.1052 25.0835 17.0002 25.0835C15.8951 25.0835 14.8353 24.6445 14.0539 23.8631C13.2725 23.0817 12.8335 22.0219 12.8335 20.9168V8.41683ZM33.6668 20.9168C33.6668 20.3643 33.4473 19.8344 33.0566 19.4437C32.6659 19.053 32.136 18.8335 31.5835 18.8335C31.031 18.8335 30.5011 19.053 30.1104 19.4437C29.7197 19.8344 29.5002 20.3643 29.5002 20.9168C29.5002 24.232 28.1832 27.4115 25.839 29.7557C23.4948 32.0999 20.3154 33.4168 17.0002 33.4168C13.685 33.4168 10.5055 32.0999 8.16133 29.7557C5.81712 27.4115 4.50016 24.232 4.50016 20.9168C4.50016 20.3643 4.28067 19.8344 3.88997 19.4437C3.49927 19.053 2.96936 18.8335 2.41683 18.8335C1.8643 18.8335 1.33439 19.053 0.943691 19.4437C0.55299 19.8344 0.333496 20.3643 0.333496 20.9168C0.337175 24.9737 1.82042 28.8899 4.50516 31.9314C7.1899 34.9728 10.8918 36.9306 14.9168 37.4377V41.7502H10.7502C10.1976 41.7502 9.66773 41.9697 9.27702 42.3604C8.88632 42.7511 8.66683 43.281 8.66683 43.8335C8.66683 44.386 8.88632 44.9159 9.27702 45.3066C9.66773 45.6973 10.1976 45.9168 10.7502 45.9168H23.2502C23.8027 45.9168 24.3326 45.6973 24.7233 45.3066C25.114 44.9159 25.3335 44.386 25.3335 43.8335C25.3335 43.281 25.114 42.7511 24.7233 42.3604C24.3326 41.9697 23.8027 41.7502 23.2502 41.7502H19.0835V37.4377C23.1085 36.9306 26.8104 34.9728 29.4952 31.9314C32.1799 28.8899 33.6632 24.9737 33.6668 20.9168V20.9168Z" fill="white"/>
</svg>
